HIERARCHY
ROOT Hips
{
	OFFSET 0.000000 0.000000 0.000000 
	CHANNELS 6 Xposition Yposition Zposition Zrotation Yrotation Xrotation
	JOINT LeftUpLeg
	{
		OFFSET 1.363060 -1.794630 0.839290 
		CHANNELS 3 Zrotation Yrotation Xrotation
		JOINT LeftLeg
		{
			OFFSET 2.448110 -6.726130 0.000000 
			CHANNELS 3 Zrotation Yrotation Xrotation
			JOINT LeftFoot
			{
				OFFSET 2.562200 -7.039590 0.000000 
				CHANNELS 3 Zrotation Yrotation Xrotation
				JOINT LeftToeBase
				{
					OFFSET 0.157640 -0.433110 2.322550 
					CHANNELS 3 Zrotation Yrotation Xrotation
					End Site
					{
						OFFSET 0.000000 0.000000 0.000000 
					}
				}
			}
		}
	}
	JOINT RightUpLeg
	{
		OFFSET -1.305520 -1.794630 0.839290 
		CHANNELS 3 Zrotation Yrotation Xrotation
		JOINT RightLeg
		{
			OFFSET -2.542530 -6.985550 0.000000 
			CHANNELS 3 Zrotation Yrotation Xrotation
			JOINT RightFoot
			{
				OFFSET -2.568260 -7.056230 0.000000 
				CHANNELS 3 Zrotation Yrotation Xrotation
				JOINT RightToeBase
				{
					OFFSET -0.164730 -0.452590 2.363150 
					CHANNELS 3 Zrotation Yrotation Xrotation
					End Site
					{
						OFFSET 0.000000 0.000000 0.000000 
					}
				}
			}
		}
	}
	JOINT Spine
	{
		OFFSET 0.028270 2.035590 -0.193380 
		CHANNELS 3 Zrotation Yrotation Xrotation
		JOINT Spine1
		{
			OFFSET 0.056720 2.048850 -0.042750 
			CHANNELS 3 Zrotation Yrotation Xrotation
			JOINT Neck1
			{
				OFFSET -0.054170 1.746240 0.172020 
				CHANNELS 3 Zrotation Yrotation Xrotation
				JOINT Head
				{
					OFFSET 0.104070 1.761360 -0.123970 
					CHANNELS 3 Zrotation Yrotation Xrotation
					End Site
					{
						OFFSET 0.000000 0.000000 0.000000 
					}
				}
			}
			JOINT LeftArm
			{
				OFFSET 3.362410 1.200890 -0.311210 
				CHANNELS 3 Zrotation Yrotation Xrotation
				JOINT LeftForeArm
				{
					OFFSET 4.983000 -0.000000 -0.000000 
					CHANNELS 3 Zrotation Yrotation Xrotation
					JOINT LeftHand
					{
						OFFSET 3.483560 -0.000000 -0.000000 
						CHANNELS 3 Zrotation Yrotation Xrotation
						JOINT LeftHandIndex1
						{
							OFFSET 0.715260 -0.000000 -0.000000 
							CHANNELS 3 Zrotation Yrotation Xrotation
							End Site
							{
								OFFSET 0.000000 0.000000 0.000000 
							}
						}
					}
				}
			}
			JOINT RightArm
			{
				OFFSET -3.136600 1.374050 -0.404650 
				CHANNELS 3 Zrotation Yrotation Xrotation
				JOINT RightForeArm
				{
					OFFSET -5.241900 -0.000000 -0.000000 
					CHANNELS 3 Zrotation Yrotation Xrotation
					JOINT RightHand
					{
						OFFSET -3.444170 -0.000000 -0.000000 
						CHANNELS 3 Zrotation Yrotation Xrotation
						JOINT RightHandIndex1
						{
							OFFSET -0.622530 -0.000000 -0.000000 
							CHANNELS 3 Zrotation Yrotation Xrotation
							End Site
							{
								OFFSET 0.000000 0.000000 0.000000 
							}
						}
					}
				}
			}
		}
	}
}
MOTION
Frames: 12
Frame Time: 0.041667
17.648929 17.870344 -14.886270 -2.346537 -51.050145 15.276615 -14.140096 -7.528513 -21.989519 1.176443 7.935604 26.512391 -2.020879 8.485253 -5.214898 0.054400 -1.504400 -4.138000 19.548148 9.633153 -24.012265 -2.591053 -9.566455 32.683437 2.500883 -9.551526 -7.830146 -0.000800 -0.179000 0.491700 8.840089 -0.314053 -1.420377 2.735404 -0.009990 -3.344837 0.582474 0.363102 20.555971 0.314600 -0.183100 10.217100 -86.218519 3.109511 15.625279 18.245817 -24.951854 -3.907388 0.031378 0.115447 -1.416616 -7.125000 0.000000 0.000000 78.086753 -1.028978 18.252545 -14.749427 21.393728 -3.136622 0.327225 -0.469618 1.616776 7.125000 0.000000 0.000000 
17.647935 17.867858 -14.887463 -2.136732 -51.074943 15.113553 -14.243950 -7.671819 -21.941944 1.176374 7.919252 26.498133 -2.036172 8.527309 -5.224920 0.048900 -1.427400 -3.925600 19.425458 9.651345 -24.056839 -2.590430 -9.568726 32.669309 2.616300 -9.830048 -7.776916 -0.001900 0.280300 -0.770100 8.578701 -0.306919 -1.166869 2.725261 0.005852 -3.259893 0.471592 0.267424 20.559778 0.245500 -0.229600 10.235200 -86.048692 2.927846 15.850353 18.297751 -25.020597 -3.930022 0.026882 0.114178 -1.695359 -7.125000 0.000000 0.000000 78.200613 -0.873438 18.075062 -14.768797 21.407169 -3.141695 0.327129 -0.468391 1.723110 7.125000 0.000000 0.000000 
17.646941 17.866268 -14.890048 -2.131942 -51.026900 15.235960 -14.223252 -7.676808 -22.070862 1.180749 7.929474 26.521787 -1.985512 8.371126 -5.179427 0.033500 -1.181100 -3.247300 19.451981 9.646659 -24.166879 -2.581317 -9.559585 32.621740 2.718958 -10.084277 -7.760552 -0.007500 0.557600 -1.532200 8.739848 -0.387139 -1.496007 2.803818 -0.045956 -3.365137 0.168402 0.418367 20.818515 0.135200 -0.183100 10.324500 -86.151089 3.160809 15.600621 18.417501 -25.172987 -3.978925 0.024659 0.108988 -1.719061 -7.125000 0.000000 0.000000 78.143967 -1.072057 18.340298 -14.798125 21.459575 -3.155755 0.332181 -0.466277 1.635752 7.125000 0.000000 0.000000 
17.642069 17.865870 -14.880801 -2.225290 -51.178706 15.165668 -14.216521 -7.774884 -21.864393 1.186684 7.936255 26.550583 -2.099963 8.730863 -5.324671 0.041500 -1.314900 -3.615600 19.442848 9.715185 -23.957283 -2.573376 -9.544551 32.592214 2.651460 -9.916420 -7.790506 -0.003300 0.373200 -1.025600 8.711516 -0.327149 -1.276402 2.733612 -0.008287 -3.352070 -0.018150 0.445134 21.036390 0.051600 -0.183600 10.433000 -86.186453 3.200112 15.567728 18.500408 -25.285033 -4.016427 0.021776 0.107691 -1.662269 -7.125000 0.000000 0.000000 78.164155 -1.140230 18.377399 -14.862637 21.544230 -3.180060 0.332201 -0.462319 1.580960 7.125000 0.000000 0.000000 
17.639981 17.866466 -14.882690 -2.404990 -51.173866 15.295861 -14.083831 -7.755695 -21.808354 1.161347 7.901068 26.418392 -2.143041 8.847464 -5.207863 0.049600 -1.437200 -3.952600 19.553322 9.773254 -23.927764 -2.582212 -9.546534 32.629307 2.587725 -9.762982 -7.836589 -0.000500 0.145900 -0.401000 8.802820 -0.353348 -1.188822 2.687803 -0.019743 -3.369868 -0.142077 0.486597 21.188668 0.003300 -0.175800 10.515900 -86.244673 3.176936 15.381338 18.514741 -25.306125 -4.021863 0.021065 0.106436 -1.551605 -7.125000 0.000000 0.000000 78.171918 -1.106065 18.497838 -14.898690 21.591718 -3.194156 0.331681 -0.460854 1.575668 7.125000 0.000000 0.000000 
17.639783 17.866367 -14.890744 -2.431456 -51.081773 15.412921 -14.030978 -7.563974 -21.919535 1.121569 7.842892 26.213046 -2.094655 8.674526 -4.940216 0.054400 -1.504400 -4.137900 19.629314 9.749804 -24.070201 -2.598855 -9.566354 32.698100 2.612783 -9.832875 -7.881979 -0.000700 0.170200 -0.467700 8.925715 -0.443080 -1.201709 2.738477 -0.063367 -3.390884 -0.271840 0.558693 21.315414 -0.035800 -0.158300 10.578000 -86.332789 3.098627 15.208142 18.502631 -25.289297 -4.015068 0.021903 0.105263 -1.466609 -7.125000 0.000000 0.000000 78.140798 -1.017509 18.694466 -14.900228 21.596281 -3.196015 0.332893 -0.462183 1.572403 7.125000 0.000000 0.000000 
17.626162 17.871736 -14.865192 -1.007098 -50.986648 14.395669 -15.056452 -7.476575 -21.699002 1.087397 7.722654 26.017194 -1.992212 8.356567 -5.011378 0.054600 -1.508000 -4.147700 18.717510 8.811125 -24.466260 -2.584547 -9.663345 32.755623 2.446456 -9.427500 -7.728732 -0.004700 0.441500 -1.213100 8.370038 -0.629265 -1.030800 3.035031 -0.138992 -3.102573 -0.211403 0.594380 21.152600 0.017800 -0.151200 10.481700 -86.426265 3.067386 15.318749 18.518610 -25.287614 -4.018360 0.019801 0.103632 -1.529008 -7.125000 0.000000 0.000000 78.008440 -1.056405 18.981983 -14.939536 21.643805 -3.211182 0.345468 -0.457576 1.621450 7.125000 0.000000 0.000000 
17.620296 17.875315 -14.855051 -0.523669 -50.960287 14.076547 -15.398837 -7.466114 -21.556863 1.046817 7.633067 25.799404 -1.974846 8.293330 -4.985384 0.051900 -1.470600 -4.044800 18.398990 8.486915 -24.629640 -2.593443 -9.716739 32.843526 2.299788 -9.076551 -7.729748 -0.004200 0.419100 -1.151500 8.132991 -0.634644 -1.025830 3.098902 -0.141635 -3.005480 -0.109298 0.540499 21.215141 0.063000 -0.174700 10.481400 -86.432447 3.117962 15.503245 18.547534 -25.319664 -4.032126 0.020284 0.104876 -1.588173 -7.125000 0.000000 0.000000 78.004170 -1.217969 19.178092 -15.039388 21.770705 -3.247553 0.370311 -0.441127 1.931116 7.125000 0.000000 0.000000 
17.619202 17.879292 -14.856840 -0.572274 -50.914672 14.106998 -15.349746 -7.368397 -21.480859 0.998064 7.554987 25.547383 -1.956071 8.214308 -4.797730 0.059000 -1.567800 -4.312700 18.421097 8.531060 -24.625411 -2.615461 -9.742354 32.947583 2.183306 -8.801736 -7.829835 -0.000200 0.095300 -0.261800 8.099857 -0.580957 -0.963060 3.061382 -0.113606 -3.031093 -0.227260 0.508587 21.439537 0.002000 -0.196500 10.587900 -86.377358 3.116733 15.807391 18.586925 -25.372240 -4.050978 0.025527 0.106216 -1.729412 -7.125000 0.000000 0.000000 77.999918 -1.235554 19.179729 -15.088465 21.836341 -3.267214 0.374530 -0.438685 1.776862 7.125000 0.000000 0.000000 
17.616816 17.879888 -14.857934 -0.692045 -50.923359 14.182684 -15.256329 -7.347546 -21.427423 0.980790 7.529856 25.459708 -1.945450 8.173864 -4.729796 0.049900 -1.442100 -3.966300 18.507431 8.523258 -24.603324 -2.621895 -9.746287 32.976347 2.148971 -8.721389 -7.866040 0.000000 -0.004900 0.013500 8.130577 -0.526706 -0.891115 3.032350 -0.084107 -3.067111 -0.388486 0.565922 21.605438 -0.067000 -0.180100 10.665700 -86.345142 3.104579 15.999935 18.629592 -25.430035 -4.070984 0.031003 0.107343 -1.821404 -7.125000 0.000000 0.000000 77.977498 -1.128127 18.836787 -15.029814 21.763535 -3.246339 0.349431 -0.452331 1.394807 7.125000 0.000000 0.000000 
17.611049 17.882672 -14.856244 -0.581429 -50.960013 14.096354 -15.325443 -7.396868 -21.374960 0.983711 7.527732 25.472363 -1.946109 8.178750 -4.785956 0.040200 -1.293500 -3.556700 18.430713 8.467987 -24.581733 -2.611626 -9.741040 32.939857 2.129612 -8.671716 -7.840372 0.000000 -0.016500 0.045300 8.137855 -0.535803 -0.818410 3.097105 -0.082502 -3.064685 -0.479210 0.594667 21.540940 -0.103200 -0.172100 10.628800 -86.324858 3.071047 16.041148 18.628063 -25.427956 -4.070698 0.033314 0.108632 -1.823613 -7.125000 0.000000 0.000000 77.909706 -1.098022 18.768920 -15.036286 21.779776 -3.250776 0.334726 -0.456700 1.149558 7.125000 0.000000 0.000000 
17.604985 17.879093 -14.853361 -0.434292 -51.056709 13.918153 -15.438931 -7.491335 -21.261728 0.990444 7.527259 25.497807 -2.039763 8.472121 -4.906012 0.058700 -1.563000 -4.299500 18.323099 8.483403 -24.523496 -2.603471 -9.733900 32.904328 2.157097 -8.734784 -7.814168 -0.000600 0.155400 -0.426900 8.027600 -0.515953 -0.552925 3.120587 -0.060019 -3.006636 -0.453244 0.484878 21.463494 -0.103200 -0.222000 10.601700 -86.254624 2.927278 16.055710 18.594063 -25.385832 -4.056075 0.033409 0.110469 -1.681893 -7.125000 0.000000 0.000000 77.874212 -1.013472 18.803225 -15.059535 21.808990 -3.259686 0.332339 -0.456232 1.110551 7.125000 0.000000 0.000000 
